<svg xmlns="http://www.w3.org/2000/svg" width="1080" height="1080" viewBox="0 0 810 810"><defs><clipPath id="a"><path d="M211 351h194v146H211Zm0 0"/></clipPath><clipPath id="b"><path d="m109.813 185.754 514.175-75.906 75.903 514.18-514.176 75.902Zm0 0"/></clipPath><clipPath id="c"><path d="m109.813 185.754 514.175-75.906 75.903 514.18-514.176 75.902Zm0 0"/></clipPath><clipPath id="d"><path d="M351 405h146v194H351Zm0 0"/></clipPath><clipPath id="e"><path d="m109.813 185.754 514.175-75.906 75.903 514.18-514.176 75.902Zm0 0"/></clipPath><clipPath id="f"><path d="m109.813 185.754 514.175-75.906 75.903 514.18-514.176 75.902Zm0 0"/></clipPath><clipPath id="g"><path d="M313 211h146v194H313Zm0 0"/></clipPath><clipPath id="h"><path d="m109.813 185.754 514.175-75.906 75.903 514.18-514.176 75.902Zm0 0"/></clipPath><clipPath id="i"><path d="m109.813 185.754 514.175-75.906 75.903 514.18-514.176 75.902Zm0 0"/></clipPath><clipPath id="j"><path d="M405 313h194v146H405Zm0 0"/></clipPath><clipPath id="k"><path d="m109.813 185.754 514.175-75.906 75.903 514.18-514.176 75.902Zm0 0"/></clipPath><clipPath id="l"><path d="m109.813 185.754 514.175-75.906 75.903 514.18-514.176 75.902Zm0 0"/></clipPath><clipPath id="m"><path d="M397 397h16v16h-16Zm0 0"/></clipPath><clipPath id="n"><path d="m109.813 185.754 514.175-75.906 75.903 514.18-514.176 75.902Zm0 0"/></clipPath><clipPath id="o"><path d="m109.813 185.754 514.175-75.906 75.903 514.18-514.176 75.902Zm0 0"/></clipPath><clipPath id="p"><path d="M0 0h733v732H0z"/></clipPath></defs><path fill="none" stroke="#000" stroke-miterlimit="10" stroke-width="17.46371" d="M801.254 405c0 6.484-.156 12.961-.476 19.438a395.33 395.33 0 0 1-3.813 38.684 393 393 0 0 1-3.324 19.155 393 393 0 0 1-4.262 18.97 393 393 0 0 1-5.187 18.737 394 394 0 0 1-6.102 18.461 392 392 0 0 1-7 18.141 394 394 0 0 1-7.879 17.773 397 397 0 0 1-18.332 34.282 398 398 0 0 1-10.406 16.426 397.338 397.338 0 0 1-23.164 31.223 396 396 0 0 1-12.703 14.722 397 397 0 0 1-13.414 14.078 393 393 0 0 1-14.086 13.406 392 392 0 0 1-14.727 12.7 394 394 0 0 1-15.332 11.96 397 397 0 0 1-32.336 21.598 396 396 0 0 1-16.922 9.582 390 390 0 0 1-17.37 8.742 395.175 395.175 0 0 1-35.93 14.875 399 399 0 0 1-18.465 6.102A398.449 398.449 0 0 1 482.3 793.5a398 398 0 0 1-19.164 3.32 396 396 0 0 1-19.301 2.383 403 403 0 0 1-19.398 1.43q-9.714.476-19.446.477-9.726 0-19.441-.477a403 403 0 0 1-19.399-1.43 396 396 0 0 1-19.3-2.383 397 397 0 0 1-19.164-3.32 399 399 0 0 1-37.723-9.445 397 397 0 0 1-54.395-20.977 396.05 396.05 0 0 1-81.961-51.883 392 392 0 0 1-14.73-12.699 396.623 396.623 0 0 1-27.496-27.484 396 396 0 0 1-24.668-30.05 394 394 0 0 1-11.2-15.895A390 390 0 0 1 65.11 608.64a396.485 396.485 0 0 1-26.215-52.055 401 401 0 0 1-7-18.14 399 399 0 0 1-6.101-18.462 403 403 0 0 1-5.188-18.738 393 393 0 0 1-4.257-18.969 397 397 0 0 1-3.328-19.156 400 400 0 0 1-2.38-19.297 392 392 0 0 1-1.43-19.386 393 393 0 0 1 0-38.875q.476-9.711 1.43-19.387a400 400 0 0 1 2.38-19.297 397 397 0 0 1 3.328-19.156 393 393 0 0 1 4.257-18.969 403 403 0 0 1 5.188-18.738 399 399 0 0 1 6.102-18.461 401 401 0 0 1 7-18.14A396.485 396.485 0 0 1 65.11 201.36a390 390 0 0 1 10.406-16.426A397.338 397.338 0 0 1 98.68 153.71a395.7 395.7 0 0 1 54.93-54.906 391 391 0 0 1 15.331-11.961 392 392 0 0 1 15.903-11.196 394 394 0 0 1 33.351-19.984 392 392 0 0 1 17.375-8.742 396.775 396.775 0 0 1 73.14-26.16 399 399 0 0 1 18.978-4.262 397 397 0 0 1 19.164-3.32 396 396 0 0 1 19.3-2.383 403 403 0 0 1 19.399-1.43 398 398 0 0 1 19.441-.476q9.732.001 19.446.476 9.713.48 19.398 1.43 9.68.954 19.3 2.383 9.624 1.425 19.165 3.32a399 399 0 0 1 37.723 9.445 399 399 0 0 1 36.613 13.098 394 394 0 0 1 17.781 7.879 390 390 0 0 1 17.371 8.742 396 396 0 0 1 49.258 31.18 394 394 0 0 1 15.332 11.96 392 392 0 0 1 14.727 12.7q7.207 6.527 14.086 13.406a397 397 0 0 1 13.414 14.078 396 396 0 0 1 24.668 30.051 394 394 0 0 1 11.199 15.895 395.853 395.853 0 0 1 49.719 105.082 393 393 0 0 1 5.187 18.738 393 393 0 0 1 4.262 18.969 393 393 0 0 1 3.324 19.156 395 395 0 0 1 4.29 58.121Zm0 0"/><g clip-path="url(#a)"><g clip-path="url(#b)"><g clip-path="url(#c)"><path d="M404.91 405.023c-293.863-210.96-220.37 286.875 0 0m0 0"/></g></g></g><g clip-path="url(#d)"><g clip-path="url(#e)"><g clip-path="url(#f)"><path d="M405.027 405.113c-210.96 293.86 286.875 220.371 0 0m0 0"/></g></g></g><g clip-path="url(#g)"><g clip-path="url(#h)"><g clip-path="url(#i)"><path d="M404.996 404.906c210.961-293.863-286.871-220.37 0 0m0 0"/></g></g></g><g clip-path="url(#j)"><g clip-path="url(#k)"><g clip-path="url(#l)"><path d="M405.117 404.992c293.86 210.961 220.371-286.87 0 0m0 0"/></g></g></g><g clip-path="url(#m)"><g clip-path="url(#n)"><g clip-path="url(#o)"><path d="M410.406 397.75a559 559 0 0 1-5.406 7.156h-.004a523 523 0 0 1-7.242-5.289 559 559 0 0 1 7.156 5.406v.004a523 523 0 0 1-5.289 7.243 588 588 0 0 1 5.406-7.16v.003s.004 0 .004-.004c2.39 1.72 4.801 3.48 7.242 5.293a559 559 0 0 1-7.16-5.406q.005.001.004-.004h-.004c1.719-2.39 3.48-4.805 5.293-7.242m0 0"/></g></g></g><g clip-path="url(#p)" transform="translate(39 39)"><path d="M269.431 86.258c-5.75 1.551-10.773 1.086-15.078-1.39q-6.468-3.705-9.203-13.86l-7.11-26.328 13.313-3.594 6.547 24.266c.992 3.644 2.484 6.16 4.484 7.547q2.989 2.076 7.172.953 4.704-1.267 6.625-5.047 1.91-3.784.281-9.766l-6.218-23.062 13.343-3.594 6.547 24.266q2.94 10.858 11.64 8.515 4.61-1.252 6.532-5.03c1.281-2.524 1.383-5.778.297-9.766l-6.219-23.063 13.313-3.594 12.406 45.97-12.734 3.437-1.438-5.297q-1.764 3.61-5.062 6.14-3.296 2.544-7.75 3.75-4.875 1.312-9.328.438a16 16 0 0 1-7.813-3.89q-1.856 4.34-5.64 7.468-3.78 3.14-8.907 4.531M216.73 111.484q-9.498 5.67-17.28 4.188-7.795-1.471-13.25-10.578l-13.938-23.329 11.094-6.625 3.03 5.079q-.059-7.69 9.063-13.141 4.707-2.813 9.125-3.281c2.938-.313 5.575.101 7.907 1.25q3.496 1.716 5.64 5.297 3.406 5.684 1.063 11.515-2.344 5.825-11.297 11.188l-9.406 5.625q2.313 3.872 5.922 4.547 3.597.686 8.296-2.125a23.9 23.9 0 0 0 5.813-4.86q2.529-2.906 3.687-5.984l9.204 5.75q-1.941 4.36-5.844 8.437a41.6 41.6 0 0 1-8.828 7.047m-19.484-34.672q-3.03 1.811-4.547 4.625c-1.007 1.883-1.296 3.938-.859 6.157l2.5 4.156 8.125-4.86q7.299-4.36 4.438-9.125-1.36-2.283-3.938-2.546-2.59-.27-5.719 1.593M156.937 182.012l-45.484-47.36 9.516-9.14 3.797 3.953q-.576-8.017 6.437-14.75 4.846-4.66 10.86-6.266 6.016-1.61 12.109.266 6.091 1.889 11.187 7.187 5.075 5.297 6.703 11.453 1.622 6.155-.218 12.11-1.846 5.952-6.688 10.61-6.58 6.31-14.25 5.702l16 16.657Zm-19.609-57.485q-3.763 3.61-3.781 8.578-.012 4.98 4.172 9.329 4.16 4.343 9.14 4.53 4.968.202 8.735-3.405 3.827-3.692 3.828-8.672.013-4.97-4.14-9.313-4.19-4.347-9.157-4.547c-3.313-.125-6.242 1.04-8.797 3.5M69.27 245.858c-.156-.074-1.226-.699-3.218-1.875l16-32.28q-4.409-1.095-8.313 1.015-3.903 2.108-6.312 6.953-1.64 3.328-1.938 6.39-.293 3.077.766 6.36l-10.407 3.047q-3.888-9.456 1.844-21.031c2.375-4.805 5.418-8.594 9.125-11.375 3.711-2.774 7.723-4.34 12.047-4.704q6.497-.532 12.86 2.625c4.164 2.063 7.43 4.914 9.796 8.563q3.562 5.465 3.813 12.062.265 6.594-2.922 13.016-3.113 6.263-8.328 10-5.205 3.731-11.688 4.14-6.468.405-13.125-2.906m23.735-15.796q2.075-4.208 1.11-8.25c-.65-2.688-2.235-4.918-4.767-6.688L78.942 236.14q4.357 1.372 8.188-.297 3.825-1.658 5.875-5.781M79.017 300.737q-1.536 6.45-5.766 11.032c-2.812 3.062-6.258 5.172-10.328 6.328-4.062 1.164-8.477 1.18-13.234.047q-7.16-1.704-11.813-6.016-4.651-4.299-6.375-10.297-1.716-5.987-.187-12.437 2.283-9.562 9.484-13.125l-5.328-1.266 3.062-12.828 63.891 15.203L99.22 290.8l-22.484-5.344q4.389 6.422 2.28 15.281m-36.11-11.062q-1.236 5.168 1.454 9.312 2.684 4.154 8.562 5.547 5.843 1.39 10.125-1.093 4.278-2.487 5.516-7.657 1.231-5.174-1.47-9.312-2.705-4.143-8.546-5.531-5.876-1.394-10.14 1.078-4.268 2.483-5.5 7.656M70.822 387.39l-50.187-22.328q-8.17-3.422-11.454-8.297c-2.187-3.25-3.242-7.149-3.171-11.688q.063-3.719 1.28-7.328c.806-2.398 1.891-4.355 3.266-5.875l9.75 5.203a11.6 11.6 0 0 0-2.265 3.641c-.55 1.375-.844 2.742-.875 4.11-.02 1.882.418 3.421 1.312 4.609q1.331 1.794 4.485 3.265l.437.188 48.313-19.828-.235 14.25-32.515 12.828 32.078 13.984ZM52.403 504.305a46.2 46.2 0 0 1-3.406-11.172q-.972-5.765-.344-9.75l10.953.157q-.58 3.76.094 8.39c.457 3.094 1.273 5.961 2.453 8.61q3.576 7.999 7.531 6.218 1.858-.832 1.688-3.375-.175-2.532-1.61-7.328-1.594-5.674-2.093-9.625-.503-3.936 1.015-7.672 1.53-3.75 6.453-5.953 4.124-1.84 8.375-.875 4.266.956 8.078 4.719 3.826 3.768 6.61 9.984a46.3 46.3 0 0 1 3.094 9.625q1.043 5.014.593 8.797l-10.843-.203c.445-4.781-.344-9.433-2.375-13.953q-1.799-4.05-3.844-5.563-2.032-1.517-3.813-.703-2.016.904-1.843 3.438.168 2.543 1.562 7.64 1.498 5.73 2 9.563.516 3.843-1.031 7.547-1.548 3.716-6.313 5.844c-2.687 1.207-5.445 1.468-8.265.78q-4.237-1.018-8.047-4.89c-2.543-2.586-4.766-6-6.672-10.25M151.36 567.266q5.636 6.92 4.874 14.328-.75 7.42-8.906 14.078l-21.14 17.219-8.72-10.703 19.485-15.875q4.388-3.582 5.078-7.156.686-3.58-2.062-6.953-3.066-3.768-7.297-3.985-4.236-.206-9.047 3.719l-18.516 15.094-8.718-10.703 19.484-15.875q8.717-7.114 3.016-14.11-3.019-3.703-7.25-3.906-4.22-.217-9.032 3.703l-18.515 15.094-8.72-10.703 36.907-30.078 8.328 10.234-4.25 3.469c2.664.093 5.223.804 7.672 2.125q3.669 1.968 6.594 5.53c2.125 2.618 3.523 5.392 4.203 8.329.688 2.945.566 5.86-.36 8.734q4.718-.08 9.126 2.094c2.937 1.445 5.523 3.547 7.765 6.297M195.867 605.089c6.039 4.242 9.672 8.933 10.89 14.078q1.829 7.705-4.265 16.39l-15.61 22.25-10.578-7.406 3.407-4.844q-7.003 3.186-15.688-2.922-4.501-3.14-6.734-6.984-2.22-3.843-2.078-7.734.14-3.89 2.53-7.297 3.812-5.438 10.095-5.672c4.187-.164 9.129 1.75 14.828 5.75l8.968 6.297q2.59-3.703 1.735-7.266-.845-3.576-5.328-6.719a24.1 24.1 0 0 0-6.813-3.312q-3.69-1.125-6.953-.938l1.469-10.75q4.763-.012 10.094 1.891a41.9 41.9 0 0 1 10.03 5.188m-23.688 31.937c1.926 1.352 3.953 2.11 6.078 2.266q3.2.233 5.954-1.72l2.796-3.983-7.75-5.438q-6.955-4.889-10.156-.344c-1.011 1.461-1.246 3.008-.703 4.657q.81 2.483 3.781 4.562M241.398 612.439l12.47 5.906-28.126 59.344-12.469-5.907ZM272.985 626.003l13.11 4.312-20.563 62.375-13.11-4.312ZM399.406 657.625c4.406-.438 8.515.18 12.328 1.844q5.717 2.5 9.344 7.703 3.638 5.204 4.359 12.5.731 7.312-1.812 13.125c-1.688 3.875-4.243 7.008-7.657 9.39q-5.109 3.58-11.718 4.235-9.785.973-15.485-4.688l.547 5.453-13.125 1.313-6.484-65.344 13.734-1.375 2.281 22.985q4.623-6.249 13.688-7.141m1.36 37.75q5.277-.53 8.312-4.422 3.046-3.89 2.437-9.906-.596-5.981-4.344-9.203c-2.492-2.157-5.496-3.055-9.015-2.703-3.524.343-6.297 1.82-8.328 4.421q-3.035 3.892-2.438 9.875.607 6.018 4.344 9.235 3.748 3.22 9.031 2.703M485.517 636.107l15.578 44.984-12.39 4.297-1.844-5.344a18.5 18.5 0 0 1-4.656 6.61q-3.047 2.781-7.22 4.234-8.877 3.065-15.827-.234-6.955-3.313-10.422-13.344l-8.813-25.422 13.047-4.516 8.14 23.485q3.763 10.892 12.891 7.734 4.671-1.623 6.454-5.672 1.779-4.043-.297-10.062l-7.703-22.235ZM543.408 659.31a45.9 45.9 0 0 1-10.672 4.766q-5.595 1.687-9.61 1.547l-1.202-10.86q3.78.095 8.297-1.14 4.53-1.249 8.25-3.5 7.483-4.546 5.234-8.265c-.7-1.157-1.883-1.57-3.547-1.25q-2.503.487-7.062 2.515-5.455 2.297-9.297 3.281c-2.57.649-5.157.622-7.75-.078q-3.903-1.06-6.703-5.672-2.345-3.856-1.922-8.187.421-4.343 3.687-8.61 3.27-4.263 9.094-7.796a46.4 46.4 0 0 1 9.156-4.25q4.84-1.652 8.672-1.688l1.156 10.781q-7.205.252-13.562 4.094-3.78 2.296-5.031 4.5-1.265 2.205-.25 3.875 1.158 1.91 3.64 1.422c1.664-.332 4.13-1.172 7.39-2.516q5.499-2.2 9.25-3.171 3.75-.985 7.61.093c2.57.711 4.766 2.555 6.578 5.532q2.279 3.784 1.797 8.125-.486 4.329-3.86 8.593c-2.241 2.836-5.355 5.453-9.343 7.86M551.568 594.934l10.531-8.906 30.734 36.359-10.53 8.906Zm.984-9.547q-2.905 2.47-6.156 2.328-3.264-.154-5.39-2.656-2.092-2.498-1.704-5.735c.262-2.156 1.36-4.054 3.297-5.703q2.909-2.451 6.11-2.36c2.124.056 3.87.892 5.234 2.517q2.238 2.642 1.875 5.906-.358 3.253-3.266 5.703M596.526 548.675c3.75-4.539 8.149-7.082 13.188-7.625q7.546-.826 15.61 5.813l21.03 17.344-8.78 10.656-19.391-16q-4.379-3.593-8.094-3.453-3.731.129-6.719 3.75-3.311 4.03-2.797 8.484.517 4.442 5.422 8.485l18.172 14.984-8.766 10.64-36.734-30.28 8.375-10.173 4.312 3.547q-.573-4.03.75-8.218c.875-2.79 2.352-5.442 4.422-7.954M663.256 484.642c.157.075 1.227.704 3.22 1.891L650.427 518.8c2.938.718 5.711.383 8.313-1.016q3.903-2.108 6.312-6.953 1.654-3.328 1.953-6.39.294-3.062-.75-6.344l10.422-3.047q3.873 9.454-1.875 21.031-3.595 7.206-9.172 11.36-5.563 4.142-12.03 4.687-6.481.533-12.845-2.625-6.246-3.106-9.796-8.578c-2.375-3.657-3.641-7.68-3.797-12.078-.164-4.395.812-8.735 2.937-13.016q3.111-6.246 8.344-9.984 5.22-3.733 11.687-4.125 6.47-.388 13.125 2.921m-23.75 15.766q-2.092 4.206-1.125 8.234.955 4.034 4.75 6.72l10.454-21c-2.907-.915-5.633-.821-8.188.28q-3.841 1.641-5.89 5.766M698.171 453.62a45.9 45.9 0 0 1-4.359 10.844q-2.86 5.111-5.86 7.813l-8.421-7c1.867-1.707 3.593-3.906 5.187-6.594q2.392-4.03 3.5-8.234 2.238-8.466-1.969-9.578-1.968-.515-3.421 1.578-1.467 2.098-3.344 6.703-2.326 5.44-4.406 8.828-2.092 3.376-5.625 5.328-3.547 1.956-8.75.578-4.371-1.154-7.079-4.562-2.718-3.404-3.328-8.735c-.414-3.562-.047-7.535 1.11-11.921a46 46 0 0 1 3.625-9.438c1.562-3.031 3.258-5.441 5.078-7.234l8.328 6.968q-5.029 5.159-6.922 12.36-1.124 4.267-.484 6.734.628 2.456 2.515 2.938 2.145.58 3.61-1.516 1.452-2.091 3.562-6.937 2.424-5.39 4.438-8.704c1.343-2.207 3.195-3.945 5.547-5.218q3.533-1.904 8.562-.578 4.277 1.126 6.938 4.578 2.67 3.456 3.203 8.86.546 5.39-1.235 12.14M708.921 389.537a46.7 46.7 0 0 1-2.25 11.469q-1.857 5.548-4.266 8.765l-9.593-5.281q2.267-3.045 3.843-7.438c1.055-2.937 1.68-5.851 1.875-8.75q.598-8.732-3.734-9.03-2.03-.141-3.062 2.187-1.045 2.315-2 7.203-1.28 5.784-2.688 9.5c-.945 2.469-2.453 4.57-4.516 6.297-2.07 1.718-4.898 2.46-8.484 2.218q-4.498-.309-7.812-3.156-3.312-2.843-4.922-7.953-1.607-5.123-1.141-11.922.344-5.044 1.797-9.953 1.44-4.906 3.625-8.047l9.469 5.266q-3.95 6.035-4.453 13.453-.313 4.406.765 6.703 1.079 2.285 3.031 2.406 2.221.159 3.266-2.156 1.033-2.327 2.188-7.484c.906-3.844 1.82-6.973 2.734-9.39q1.36-3.624 4.469-6.173 3.093-2.544 8.297-2.187 4.407.298 7.671 3.187c2.168 1.93 3.766 4.625 4.797 8.094q1.562 5.204 1.094 12.172M698.414 277.391q1.923 7.284.407 13.844-1.512 6.563-6.047 11.25c-3.02 3.117-6.817 5.274-11.39 6.484q-6.845 1.794-13.079-.046c-4.164-1.22-7.77-3.477-10.813-6.782q-4.576-4.967-6.5-12.25-1.92-7.278-.375-13.812 1.534-6.528 6.063-11.203 4.517-4.686 11.36-6.485 6.862-1.81 13.109.032c4.168 1.218 7.765 3.476 10.797 6.765 3.03 3.281 5.187 7.352 6.468 12.203m-10.953 2.875q-1.358-5.137-5.687-7.515-4.325-2.39-10.172-.844c-3.875 1.023-6.676 2.937-8.406 5.75q-2.61 4.206-1.25 9.344 1.36 5.126 5.703 7.562 4.345 2.426 10.156.89 5.847-1.543 8.437-5.796 2.579-4.265 1.22-9.39M602.178 182.844l49.906-8.594 6.578 11.532-20.36 23.953 31.157-5.047 6.578 11.531-32.844 38.5-6.437-11.297 22.39-25.718-33.75 5.812-5.796-10.156 22.359-25.781-33.719 5.875ZM570.549 152.915q-6.263-6.236-6.391-13.844-.124-7.622 7.234-15.015l19.22-19.344 9.796 9.75-17.719 17.828q-3.983 4.02-4.187 7.734c-.145 2.48.89 4.82 3.11 7.032q3.703 3.667 8.187 3.562 4.47-.11 8.953-4.61l16.594-16.702 9.796 9.718-33.562 33.766-9.36-9.297 3.938-3.953q-4.06.216-8.11-1.484-4.043-1.707-7.5-5.141M512.957 80.503q.141-.232 2.188-3.031l30.64 18.968q1.488-4.265-.25-8.343-1.734-4.092-6.328-6.954-3.153-1.95-6.172-2.53-3.03-.577-6.406.155l-2.047-10.656q9.769-2.98 20.75 3.828 6.846 4.237 10.469 10.172c2.406 3.95 3.59 8.086 3.547 12.422q-.074 6.514-3.813 12.547-3.668 5.935-9.453 8.953-5.777 3.03-12.36 2.656-6.592-.361-12.687-4.14-5.95-3.675-9.171-9.22-3.234-5.548-3.016-12.03c.137-4.325 1.508-8.586 4.11-12.797m13.5 25.11q3.986 2.465 8.094 1.89 4.112-.581 7.14-4.11L521.74 91.05q-1.763 4.2-.485 8.172 1.284 3.965 5.203 6.39M473.39 83.286q-3.516 2.342-8.079 2.5-4.559.154-9.703-1.797l4.547-11.906q2.11.966 2.843 1.265 5.534 2.109 9.86.204 4.33-1.91 6.703-8.094l8.016-21 12.89 4.922-16.984 44.484-12.328-4.703ZM432.297 27.997a46.8 46.8 0 0 1 11.11 3.625q5.283 2.498 8.187 5.312l-6.406 8.86c-1.832-1.743-4.145-3.313-6.938-4.72-2.789-1.406-5.61-2.382-8.453-2.921q-8.591-1.658-9.406 2.61-.388 1.982 1.797 3.296 2.173 1.326 6.906 2.89 5.595 1.952 9.11 3.798 3.515 1.857 5.702 5.25 2.175 3.405 1.157 8.703-.856 4.434-4.078 7.375-3.217 2.935-8.485 3.906-5.279.966-11.969-.328a46.7 46.7 0 0 1-9.656-2.985q-4.701-2.032-7.562-4.562l6.39-8.766q5.485 4.641 12.797 6.047 4.349.844 6.75.047 2.407-.796 2.781-2.719.41-2.174-1.765-3.5-2.186-1.313-7.172-3.078-5.544-2.05-8.984-3.844c-2.29-1.187-4.149-2.914-5.579-5.171q-2.139-3.394-1.156-8.516.831-4.347 4.094-7.234 3.27-2.89 8.625-3.782c3.562-.601 7.633-.468 12.203.407m0 0"/></g></svg>