<svg xmlns="http://www.w3.org/2000/svg" xmlns:xlink="http://www.w3.org/1999/xlink" width="1080" zoomAndPan="magnify" viewBox="0 0 810 817.92" height="1080" preserveAspectRatio="xMidYMid meet" version="1.0"><path fill="#000000" d="M 767.511719 192.671875 C 767.511719 179.3125 762.203125 166.5 752.789062 157.050781 C 743.347656 147.625 730.554688 142.308594 717.207031 142.308594 C 595.058594 142.308594 214.59375 142.308594 92.445312 142.308594 C 79.097656 142.308594 66.304688 147.625 56.863281 157.050781 C 47.449219 166.5 42.140625 179.3125 42.140625 192.671875 C 42.140625 285.929688 42.140625 524.335938 42.140625 617.59375 C 42.140625 630.953125 47.449219 643.765625 56.863281 653.214844 C 66.304688 662.640625 79.097656 667.957031 92.445312 667.957031 C 214.59375 667.957031 595.058594 667.957031 717.207031 667.957031 C 730.554688 667.957031 743.347656 662.640625 752.789062 653.214844 C 762.203125 643.765625 767.511719 630.953125 767.511719 617.59375 Z M 743.273438 192.671875 L 743.273438 617.59375 C 743.273438 624.511719 740.542969 631.15625 735.636719 636.042969 C 730.753906 640.957031 724.117188 643.691406 717.207031 643.691406 C 595.058594 643.691406 214.59375 643.691406 92.445312 643.691406 C 85.535156 643.691406 78.898438 640.957031 74.015625 636.042969 C 69.109375 631.15625 66.378906 624.511719 66.378906 617.59375 C 66.378906 524.335938 66.378906 285.929688 66.378906 192.671875 C 66.378906 185.753906 69.109375 179.109375 74.015625 174.222656 C 78.898438 169.308594 85.535156 166.578125 92.445312 166.578125 C 214.59375 166.578125 595.058594 166.578125 717.207031 166.578125 C 724.117188 166.578125 730.753906 169.308594 735.636719 174.222656 C 740.542969 179.109375 743.273438 185.753906 743.273438 192.671875 Z M 743.273438 192.671875 " fill-opacity="1" fill-rule="evenodd"/><path fill="#000000" d="M 667.351562 204.582031 C 667.351562 197.886719 661.917969 192.449219 655.230469 192.449219 L 104.339844 192.449219 C 97.652344 192.449219 92.21875 197.886719 92.21875 204.582031 L 92.21875 605.683594 C 92.21875 612.378906 97.652344 617.816406 104.339844 617.816406 L 655.230469 617.816406 C 661.917969 617.816406 667.351562 612.378906 667.351562 605.683594 Z M 116.460938 216.714844 L 116.460938 593.550781 L 643.113281 593.550781 L 643.113281 216.714844 Z M 116.460938 216.714844 " fill-opacity="1" fill-rule="evenodd"/><path fill="#000000" d="M 693.191406 380.0625 L 693.191406 430.203125 C 693.191406 436.894531 698.625 442.335938 705.3125 442.335938 C 712 442.335938 717.433594 436.894531 717.433594 430.203125 L 717.433594 380.0625 C 717.433594 373.371094 712 367.929688 705.3125 367.929688 C 698.625 367.929688 693.191406 373.371094 693.191406 380.0625 Z M 693.191406 380.0625 " fill-opacity="1" fill-rule="evenodd"/><path fill="#000000" d="M 354.746094 267.65625 C 292.769531 267.65625 242.464844 318.019531 242.464844 380.0625 C 242.464844 442.109375 292.769531 492.472656 354.746094 492.472656 C 416.71875 492.472656 467.027344 442.109375 467.027344 380.0625 C 467.027344 318.019531 416.71875 267.65625 354.746094 267.65625 Z M 354.746094 291.921875 C 403.347656 291.921875 442.789062 331.40625 442.789062 380.0625 C 442.789062 428.722656 403.347656 468.207031 354.746094 468.207031 C 306.140625 468.207031 266.703125 428.722656 266.703125 380.0625 C 266.703125 331.40625 306.140625 291.921875 354.746094 291.921875 Z M 354.746094 291.921875 " fill-opacity="1" fill-rule="evenodd"/><path fill="#000000" d="M 416.996094 459.53125 L 496.425781 539.050781 C 501.15625 543.789062 508.820312 543.789062 513.550781 539.050781 C 518.285156 534.3125 518.285156 526.640625 513.550781 521.90625 L 434.125 442.386719 C 429.390625 437.648438 421.726562 437.648438 416.996094 442.386719 C 412.261719 447.125 412.261719 454.792969 416.996094 459.53125 Z M 416.996094 459.53125 " fill-opacity="1" fill-rule="evenodd"/></svg>